<svg id="visual" viewBox="0 0 900 100" width="900" height="100" xmlns="http://www.w3.org/2000/svg" xmlns:xlink="http://www.w3.org/1999/xlink" version="1.1"><path d="M0 61L30 55.3C60 49.7 120 38.3 180 44.7C240 51 300 75 360 81C420 87 480 75 540 66.3C600 57.7 660 52.3 720 49.2C780 46 840 45 870 44.5L900 44L900 101L870 101C840 101 780 101 720 101C660 101 600 101 540 101C480 101 420 101 360 101C300 101 240 101 180 101C120 101 60 101 30 101L0 101Z" fill="#efbf6a" stroke-linecap="round" stroke-linejoin="miter"></path></svg>